<?xml version="1.0" encoding="UTF-8" standalone="no"?>
<svg width="34px" height="22px" viewBox="0 0 34 22" version="1.1" xmlns="http://www.w3.org/2000/svg" xmlns:xlink="http://www.w3.org/1999/xlink">
    <!-- Generator: Sketch 48.2 (47327) - http://www.bohemiancoding.com/sketch -->
    <title>Payform/OneField/icon/mir</title>
    <desc>Created with Sketch.</desc>
    <defs>
        <path d="M18.4897433,0 C18.8003676,1.89626703 20.2784953,3.33333333 22.0573203,3.33333333 L22.0573203,3.33333333 L26.0289255,3.33333333 C26.0610528,3.15362407 26.0783799,2.967938 26.0783799,2.77759206 L26.0783799,2.77759206 C26.0783799,1.24378261 24.9704384,0 23.6040344,0 L23.6040344,0 L18.4897433,0 Z" id="path-1"></path>
    </defs>
    <g id="Symbols" stroke="none" stroke-width="1" fill="none" fill-rule="evenodd">
        <g id="Payform/OneField/icon/mir">
            <g id="Group">
                <rect id="Rectangle-7" fill-opacity="0" fill="#FFFFFF" x="0" y="0" width="34" height="22"></rect>
                <g id="icon_mir" transform="translate(4.000000, 7.000000)">
                    <path d="M14.3212844,0.845036801 C14.5362032,0.329719515 15.0018007,0 15.514479,0 L17.4659091,0 L17.4659091,8 L15.166404,8 L15.166404,3.27282674 L15.0023397,3.27282674 L13.3833509,7.1549632 C13.1683422,7.67028049 12.7028347,8 12.1906056,8 L10.2386364,8 L10.2386364,0 L12.5382313,0 L12.5382313,4.72717326 L12.7028347,4.72717326 L14.3212844,0.845036801 Z M5.5384839,1.05155588 C5.6981333,0.428857367 6.20382211,0 6.77852465,0 L9.03409091,0 L9.03409091,8 L6.7754358,8 L6.7754358,3.27252384 L6.6142861,3.27252384 L5.32367647,8 L3.71032618,8 L2.4198048,3.27252384 L2.25812559,3.27252384 L2.25812559,8 L0,8 L0,0 L2.25556626,0 C2.83026879,0 3.33595761,0.428857367 3.49560701,1.05155588 L4.43647061,4.72747616 L4.5976203,4.72747616 L5.5384839,1.05155588 Z M18.6704545,4 L25.8977273,4 C25.5521265,4.97039316 24.6240464,5.66673504 23.5301329,5.66673504 L21.0117393,5.66673504 L21.0117393,8 L18.6704545,8 L18.6704545,4 Z" id="Combined-Shape" fill="#20AA4D"></path>
                    <mask id="mask-2" fill="white">
                        <use xlink:href="#path-1"></use>
                    </mask>
                    <use id="Clip-11" fill="#34BCE8" xlink:href="#path-1"></use>
                </g>
            </g>
        </g>
    </g>
</svg>