<?xml version="1.0" encoding="UTF-8" standalone="no"?>
<svg width="34px" height="22px" viewBox="0 0 34 22" version="1.1" xmlns="http://www.w3.org/2000/svg" xmlns:xlink="http://www.w3.org/1999/xlink">
    <!-- Generator: Sketch 48.2 (47327) - http://www.bohemiancoding.com/sketch -->
    <title>Payform/OneField/icon/visa</title>
    <desc>Created with Sketch.</desc>
    <defs></defs>
    <g id="Symbols" stroke="none" stroke-width="1" fill="none" fill-rule="evenodd">
        <g id="Payform/OneField/icon/visa">
            <g id="Group">
                <rect id="Rectangle-7" fill-opacity="0" fill="#FFFFFF" x="0" y="0" width="34" height="22"></rect>
                <path d="M16.3783565,7.05000019 L14.7078704,15.0500002 L12.6875,15.0500002 L14.3586806,7.05000019 L16.3783565,7.05000019 Z M27.1315972,15.0500002 L26.8875,13.8547846 L24.2959491,13.8547846 L23.874537,15.0500002 L21.7538194,15.0500002 L24.7849537,7.63669927 C24.9300926,7.28086177 25.2570602,7.05000019 25.6449074,7.05000019 L27.3690972,7.05000019 L29,15.0500002 L27.1315972,15.0500002 Z M24.8774306,12.3154186 L26.5530093,12.3154186 L25.9408565,9.41017477 L24.8774306,12.3154186 Z M21.8587963,12.4370968 C21.8678241,10.2675607 19.0090278,10.1477823 19.0287037,9.17834514 C19.0349537,8.88359041 19.3016204,8.57019267 19.8855324,8.48989363 C20.174537,8.45017059 20.9728009,8.41934258 21.8770833,8.8576364 L22.2320602,7.11445282 C21.7456019,6.92863184 21.1204861,6.75 20.3420139,6.75 C18.3454861,6.75 16.9399306,7.86760658 16.9287037,9.46737292 C16.9153935,10.6515095 17.931713,11.3113263 18.6974537,11.7050231 C19.4841435,12.1078586 19.7480324,12.3663021 19.7451389,12.726612 C19.7392361,13.2784699 19.1173611,13.5216821 18.5359954,13.5311864 C17.5203704,13.5478798 16.9309028,13.2421586 16.4612269,13.0117406 L16.0954861,14.8132902 C16.5670139,15.0413931 17.4383102,15.240252 18.3418981,15.25 C20.4642361,15.25 21.8521991,14.1467717 21.8587963,12.4370968 Z M13.4917824,7.05000019 L10.21875,15.0500002 L8.08344907,15.0500002 L6.47280093,8.66543839 C6.375,8.27236898 6.29016204,8.12806567 5.99282407,7.96277495 C5.50729167,7.69254714 4.70543981,7.43927527 4,7.28192893 L4.04756944,7.05000019 L7.48518519,7.05000019 C7.92303241,7.05000019 8.31724537,7.34844837 8.41666667,7.86554511 L9.26736111,12.4949897 L11.3699074,7.05000019 L13.4917824,7.05000019 Z" id="icon_visa" fill="#1A6BC8"></path>
            </g>
        </g>
    </g>
</svg>