<svg xmlns="http://www.w3.org/2000/svg" xmlns:xlink="http://www.w3.org/1999/xlink" width="48" height="38" viewBox="0 0 48 38">
    <defs>
        <path id="a" d="M9.762 14L6.05 17l-3.788-3h-.267A2 2 0 0 1 0 11.994V2.006A2 2 0 0 1 1.995 0h14.01A2 2 0 0 1 18 2.006v9.988A2 2 0 0 1 16.005 14H9.762zM11 13h5a1 1 0 0 0 1-1.002V2.002C17 1.456 16.552 1 16 1H2a1 1 0 0 0-1 1.002v9.996C1 12.544 1.448 13 2 13h9zm-4.95 2.6L9.2 13H2.8l3.25 2.6zM5.3 8.4a1.3 1.3 0 1 1 0-2.6 1.3 1.3 0 0 1 0 2.6zm3.7 0a1.3 1.3 0 1 1 0-2.6 1.3 1.3 0 0 1 0 2.6zm3.7 0a1.3 1.3 0 1 1 0-2.6 1.3 1.3 0 0 1 0 2.6z"/>
    </defs>
    <g fill="none" fill-rule="evenodd">
        <g transform="translate(15 11)">
            <mask id="b" fill="#fff">
                <use xlink:href="#a"/>
            </mask>
            <use fill="#FFF" fill-opacity="0" xlink:href="#a"/>
            <g fill="#b063f5" mask="url(#b)">
                <path d="M-15-11h48v38h-48z"/>
            </g>
        </g>
    </g>
</svg>
