<svg xmlns="http://www.w3.org/2000/svg" xmlns:xlink="http://www.w3.org/1999/xlink" width="48" height="38" viewBox="0 0 48 38">
    <defs>
        <path id="a" d="M3 0h14a3 3 0 0 1 3 3v12a3 3 0 0 1-3 3H3a3 3 0 0 1-3-3V3a3 3 0 0 1 3-3zm0 1a2 2 0 0 0-2 2v12a2 2 0 0 0 2 2h14a2 2 0 0 0 2-2V3a2 2 0 0 0-2-2H3zm4.26 5.624c.076-1.45 1.101-2.577 2.865-2.577 1.647 0 2.803 1.053 2.803 2.447 0 1.012-.506 1.73-1.443 2.331-.895.574-1.148.964-1.148 1.723v.513h-.91v-.643c-.006-.91.39-1.483 1.354-2.099.861-.56 1.183-1.032 1.183-1.784 0-.97-.773-1.675-1.873-1.675-1.094 0-1.853.684-1.942 1.764h-.888zm2.708 7.472c-.452 0-.766-.322-.766-.766 0-.451.314-.772.766-.772.444 0 .758.32.758.772 0 .444-.314.766-.758.766z"/>
    </defs>
    <g fill="none" fill-rule="evenodd">
        <g transform="translate(14 10)">
            <mask id="b" fill="#fff">
                <use xlink:href="#a"/>
            </mask>
            <use fill="#FFF" fill-opacity="0" xlink:href="#a"/>
            <g fill="#000" fill-opacity=".5" mask="url(#b)">
                <path d="M-14-10h48v38h-48z"/>
            </g>
        </g>
    </g>
</svg>