<svg xmlns="http://www.w3.org/2000/svg" xmlns:xlink="http://www.w3.org/1999/xlink" width="48" height="38" viewBox="0 0 48 38">
    <defs>
        <path id="a" d="M16 9V7h-1v2h-1a1 1 0 0 1-1-1V6H8a4 4 0 1 1-8 0V4a4 4 0 1 1 8 0h10a1 1 0 0 1 0 2v2a1 1 0 0 1-1 1h-1zM4 1a3 3 0 0 0-3 3v2a3 3 0 1 0 6 0V4a3 3 0 0 0-3-3z"/>
    </defs>
    <g fill="none" fill-rule="evenodd">
        <g transform="translate(15 14)">
            <mask id="b" fill="#fff">
                <use xlink:href="#a"/>
            </mask>
            <use fill="#FFF" xlink:href="#a"/>
  <g fill="#1aa4b8" mask="url(#b)">
                <path d="M-15-14h48v38h-48z"/>
            </g>
        </g>
    </g>
</svg>