<svg xmlns="http://www.w3.org/2000/svg" xmlns:xlink="http://www.w3.org/1999/xlink" width="48" height="38" viewBox="0 0 48 38">
    <defs>
        <path id="a" d="M18 13.696A2.702 2.702 0 0 1 20.693 11h6.614A2.692 2.692 0 0 1 30 13.696v10.608A2.702 2.702 0 0 1 27.307 27h-6.614A2.692 2.692 0 0 1 18 24.304V13.696zM24 26.3a1.25 1.25 0 1 0 0-2.5 1.25 1.25 0 0 0 0 2.5zm-5-12.308V23h10v-9.008A2.001 2.001 0 0 0 27 12h-6c-1.113 0-2 .892-2 1.992z"/>
    </defs>
    <g fill="none" fill-rule="evenodd">
        <mask id="b" fill="#fff">
            <use xlink:href="#a"/>
        </mask>
        <use fill="#FFF" fill-opacity="0" xlink:href="#a"/>
        <g fill="#b063f5" mask="url(#b)">
            <path d="M0 0h48v38H0z"/>
        </g>
    </g>
</svg>
