<?xml version="1.0" encoding="UTF-8"?>
<svg width="48px" height="38px" viewBox="0 0 48 38" version="1.1" xmlns="http://www.w3.org/2000/svg" xmlns:xlink="http://www.w3.org/1999/xlink">
    <defs></defs>
    <g id="icons-to-export" stroke="none" stroke-width="1" fill="none" fill-rule="evenodd">
        <g id="icon/input/amount" fill="#595959">
            <path d="M19,20 L20.0011115,20 L20.0011115,22 L19,22 L19,23 L20.0011115,23 L20.0011115,26 L21,26 L21,23 L27.5353079,23 L27.5353079,22 L21,22 L21,20 L23.3999996,20 C26.2800007,20 28.4000015,18.8999939 28.4000015,16.5 C28.4000015,14.1000061 26.2800007,13 23.3999996,13 L20.0011115,13 L20.0011115,19 L19,19 L19,20 Z M22.8899994,19 L21,19 L21,14 L22.8899994,14 C25.7199993,14 27.4000015,14.7999878 27.4000015,16.5 C27.4000015,18.2000122 25.7199993,19 22.8899994,19 Z" id="rub"></path>
        </g>
    </g>
</svg>
