<svg xmlns="http://www.w3.org/2000/svg" xmlns:xlink="http://www.w3.org/1999/xlink" width="48" height="38" viewBox="0 0 48 38">
    <defs>
        <path id="a" d="M10 8h2.5a1 1 0 0 1 0 2H10v2.2a1 1 0 1 1-2 0V10H5.5a1 1 0 1 1 0-2H8V5.2a1 1 0 1 1 2 0V8zM9 18A9 9 0 1 1 9 0a9 9 0 0 1 0 18zm0-1A8 8 0 1 0 9 1a8 8 0 0 0 0 16z"/>
    </defs>
    <g fill="none" fill-rule="evenodd">
        <g transform="translate(15 10)">
            <mask id="b" fill="#fff">
                <use xlink:href="#a"/>
            </mask>
            <use fill="#FFF" fill-opacity="0" xlink:href="#a"/>
            <g fill="#1aa4b8" mask="url(#b)">
                <path d="M-15-10h48v38h-48z"/>
            </g>
        </g>
    </g>
</svg>
