<?xml version="1.0" encoding="utf-8"?>
<!-- Generator: Adobe Illustrator 21.0.0, SVG Export Plug-In . SVG Version: 6.00 Build 0)  -->
<svg version="1.1" id="Layer_1" xmlns="http://www.w3.org/2000/svg" xmlns:xlink="http://www.w3.org/1999/xlink" x="0px" y="0px"
	 viewBox="0 0 48 38" style="enable-background:new 0 0 48 38;" xml:space="preserve">
<style type="text/css">
	.st0{fill:#FFFFFF;fill-opacity:0;}
	.st1{filter:url(#Adobe_OpacityMaskFilter);}
	.st2{fill:#FFFFFF;}
	.st3{mask:url(#b);}
	.st4{fill-opacity:0.5;}
</style>
<g>
	<g transform="translate(16 8)">
		<g transform="rotate(-45 8.5 11.5)">
			<path id="a_1_" class="st0" d="M12,15.7C8.5,18.9,3.1,18.5,0,15S-2.8,6.1,0.7,3s8.9-2.8,12,0.7c2.9,3.2,2.9,8.1,0,11.3l3.9,3.9
				c0.2,0.2,0.2,0.5,0,0.7c-0.2,0.2-0.5,0.2-0.7,0L12,15.7z M11.7,14.7c2.9-2.9,2.9-7.7,0-10.6S4,1.1,1.1,4.1s-2.9,7.7,0,10.6
				S8.8,17.6,11.7,14.7z"/>
		</g>
		<defs>
			<filter id="Adobe_OpacityMaskFilter" filterUnits="userSpaceOnUse" x="-21.9" y="-17.6" width="59.8" height="61.2">
				<feColorMatrix  type="matrix" values="1 0 0 0 0  0 1 0 0 0  0 0 1 0 0  0 0 0 1 0"/>
			</filter>
		</defs>
		<mask maskUnits="userSpaceOnUse" x="-21.9" y="-17.6" width="59.8" height="61.2" id="b">
			<g class="st1">
				<path id="a" class="st2" d="M11.1,15.5C7.9,19,2.5,19.2-0.9,16S-4.6,7.5-1.4,4s8.6-3.7,12-0.5c3.2,2.9,3.7,7.7,1.1,11.2l4.3,3.5
					c0.2,0.2,0.2,0.5,0.1,0.7c-0.2,0.2-0.5,0.2-0.7,0.1L11.1,15.5z M10.6,14.5c2.6-3.2,2.2-7.9-1.1-10.6S1.7,1.8-1,5
					s-2.2,7.9,1.1,10.6S8,17.7,10.6,14.5z"/>
			</g>
		</mask>
		<g class="st3">
			<path class="st4" d="M-21.9,19.5L8.5-17.6L37.9,6.5L7.5,43.6L-21.9,19.5z"/>
		</g>
	</g>
</g>
</svg>
